<svg xmlns="http://www.w3.org/2000/svg" xmlns:xlink="http://www.w3.org/1999/xlink" width="40" height="40" viewBox="0 0 40 40">
  <defs>
    <clipPath id="clip-path">
      <rect id="Rectangle_6399" data-name="Rectangle 6399" width="34" height="33.641" fill="none"/>
    </clipPath>
  </defs>
  <g id="Icon_-_Carbon_Capture" data-name="Icon - Carbon Capture" transform="translate(-14820 -8291)">
    <rect id="Rectangle_6576" data-name="Rectangle 6576" width="40" height="40" transform="translate(14820 8291)" fill="#fff" opacity="0"/>
    <g id="Group_17582" data-name="Group 17582" transform="translate(14823 8294)">
      <rect id="Rectangle_6398" data-name="Rectangle 6398" width="34" height="0.972" transform="translate(0 32.669)"/>
      <g id="Group_17438" data-name="Group 17438" transform="translate(0 0)">
        <g id="Group_17437" data-name="Group 17437" clip-path="url(#clip-path)">
          <path id="Path_11383" data-name="Path 11383" d="M34,.983V.012H25.294V0h-.972v15.94a6.465,6.465,0,1,1-3.111,0V0H20.24V.012H0V.983H20.24V4.094H0v.972H20.24v7.193H0v.972H20.24v1.993a7.456,7.456,0,0,0-4.688,5.2H0V21.4H15.379a7.176,7.176,0,0,0,.318,3.111H0v.972H16.1a7.421,7.421,0,0,0,13.338,0H34v-.972H29.836a7.4,7.4,0,0,0,.368-2.3,7.474,7.474,0,0,0-.05-.813H34v-.972H29.981a7.456,7.456,0,0,0-4.688-5.2V13.23H34v-.972H25.294V5.066H34V4.094H25.294V.983Z" transform="translate(0 -0.001)"/>
          <path id="Path_11384" data-name="Path 11384" d="M36.718,39.352a2.047,2.047,0,1,0,2.047-2.047,2.05,2.05,0,0,0-2.047,2.047m3.123,0a1.076,1.076,0,1,1-1.076-1.076,1.077,1.077,0,0,1,1.076,1.076" transform="translate(-18.878 -19.18)"/>
          <path id="Path_11385" data-name="Path 11385" d="M47.421,49.334a2.994,2.994,0,1,0-2.994-2.994,3,3,0,0,0,2.994,2.994m0-5.017A2.023,2.023,0,1,1,45.4,46.339a2.025,2.025,0,0,1,2.023-2.023" transform="translate(-22.841 -22.285)"/>
        </g>
      </g>
    </g>
  </g>
</svg>
